<?xml version="1.0" encoding="utf-8" ?><svg xmlns="http://www.w3.org/2000/svg" xmlns:xlink="http://www.w3.org/1999/xlink" width="1024" height="1024" viewBox="0 0 1024 1024"><path fill="#1D0648" d="M296.244 140.776C326.604 139.705 359.361 140.493 389.94 140.502C468.092 141.075 546.248 141.109 624.401 140.602C646.352 140.304 668.78 140.538 690.692 140.476C732.52 140.358 759.863 138.782 798.357 158.251C812.399 165.249 825.274 174.377 836.526 185.31C868.313 216.442 884.047 256.397 884.502 300.631L884.619 606.767L884.574 689.264C884.561 712.074 885.776 737.542 881.047 759.624C874.422 789.262 859.663 816.464 838.429 838.176C808.998 868.024 766.856 884.661 725.125 885.019L422.322 884.924L338.749 884.912C317.054 884.925 292.507 886.116 271.375 882.188C244.103 877.12 215.242 863.608 194.444 845.178C162.712 817.287 143.496 777.83 141.102 735.65C140.365 722.926 140.54 707.247 140.579 694.453L140.791 634.14L141.004 439.933L140.918 342.195C140.813 321.581 139.639 290.729 143.103 271.113C147.989 242.496 160.755 215.808 179.969 194.044C211.041 159.366 250.404 143.352 296.244 140.776Z"/><path fill="#0BE3FD" d="M508.836 249.701C520.796 247.745 538.117 252.379 548.389 258.495C568.642 270.555 577.356 284.457 583.548 306.29L663.803 305.9C671.599 305.802 683.933 305.788 689.795 311.827C695.909 318.124 693.649 354.175 693.722 363.767C721.127 369.65 740.902 386.647 748.015 414.249C752.843 432.565 750.199 452.048 740.665 468.414C729.648 486.906 713.835 495.326 693.7 500.491C694.005 508.017 693.923 516.239 693.991 523.819C718.597 527.018 738.905 546.543 746.825 569.517C752.765 587.056 751.545 606.229 743.43 622.873C737.034 635.933 725.318 648.267 711.974 654.192C706.708 656.531 699.141 658.979 693.519 660.918C693.512 673.375 694.104 685.908 693.874 698.321C693.761 704.419 692.633 710.713 687.781 714.751C685.987 716.299 683.559 717.901 681.096 718.116C663.388 719.661 645.172 718.99 627.421 718.826C612.721 718.689 598.427 719.3 583.815 718.502C581.498 730.269 576.425 741.318 569.012 750.745C555.869 767.283 539.146 774.774 518.625 777.034C502.011 778.174 485.488 773.77 471.645 764.511C456.037 753.906 445.277 737.539 441.731 719.004L381.098 718.958C371.849 719.004 362.147 718.958 352.966 718.982C330.518 719.042 331.804 705.79 331.743 688.374C331.706 679.193 331.731 670.013 331.819 660.833C303.964 653.463 284.018 638.758 276.625 609.775C271.859 591.268 274.747 571.621 284.637 555.269C296.2 536.138 310.732 529.04 331.471 523.87L331.506 500.801C302.659 493.016 281.874 476.678 275.627 446.249C271.802 428.057 275.52 409.092 285.931 393.69C297.464 376.373 311.906 367.833 331.943 363.857C331.928 363.399 331.916 362.94 331.908 362.482C331.634 349.081 330.802 333.242 332.428 319.843C332.789 316.869 334.839 312.91 337.036 310.854C338.973 309.041 341.541 307.138 344.258 306.685C353.778 305.956 364.471 306.354 373.979 306.375L442.178 306.453C451.099 272.244 473.944 253.442 508.836 249.701Z"/><path fill="#1D0648" d="M583.846 335.004L664.036 335.297L664.143 364.017C655.684 365.578 647.6 368.738 640.324 373.326C624.696 383.201 613.65 398.901 609.634 416.947C600.846 456.441 625.427 491.983 664.493 500.354L664.466 524.207C655.617 525.628 647.17 528.911 639.684 533.838C624.246 543.885 613.431 559.652 609.616 577.672C605.373 597.749 609.478 615.721 620.598 632.723C632.122 648.101 646.114 655.755 664.347 660.38L664.387 689.912L583.356 689.99C581.466 681.81 578.245 673.997 573.82 666.862C562.629 649.037 547.094 639.994 527.065 635.372L527.065 562.88C540.15 573.141 547.529 589.374 564.407 595.358C578.645 591.09 583.675 580.006 572.831 568.707C556.36 551.562 539.891 534.344 522.871 517.742C512.88 507.996 504.758 513.901 496.749 522.384C483.963 535.927 470.857 549.134 457.618 562.231C452.86 566.938 447.303 572.461 445.446 579.022C446.276 583.762 447.306 586.964 450.553 590.707C454.858 595.778 464.293 595.244 469.184 591.247C479.616 582.721 488.766 571.758 498.54 562.343C497.784 586.806 497.753 611.286 498.448 635.751C466.45 643.863 451.866 658.509 441.649 689.932C415.011 689.665 387.873 689.961 361.196 689.989C361.012 680.212 361.062 670.107 361 660.307C370.946 658.088 379.706 654.722 388.161 648.912C402.946 638.702 413.025 622.994 416.146 605.298C419.555 586.769 415.41 567.645 404.634 552.191C394.377 537.27 378.531 527.121 360.687 524.045L360.785 500.663C371.209 497.982 379.867 494.603 388.806 488.413C403.512 478.298 413.475 462.64 416.408 445.034C419.701 426.627 415.456 407.669 404.627 392.424C394.123 377.754 378.887 367.1 360.917 364.217L360.864 335.015C387.903 335.296 414.943 335.425 441.983 335.4C443.738 344.788 447.44 353.704 452.848 361.576C463.533 377.043 479.938 387.617 498.437 390.962L498.45 420.358C493.901 426.199 481.106 438.236 475.275 444.072L434.731 485.141C428.159 491.776 420.782 498.532 415.067 505.897C405.093 518.75 421.735 535.124 434.67 525.511C436.851 523.754 439.168 521.841 441.073 519.79C464.222 494.851 490.518 471.582 513.061 446.202C529.979 463.808 546.99 481.326 564.093 498.753C572.898 507.804 581.75 517.774 591.044 525.9C599.024 532.876 613.248 525.814 613.102 515.261C613.067 512.692 612.566 509.135 610.911 507.136C602.599 497.097 592.72 488.31 583.71 478.883C565.085 459.569 545.626 440.565 527.371 420.998C526.799 412.187 527.053 400.706 527.035 391.675C558.466 382.465 575.504 367.215 583.846 335.004Z"/><path fill="#1D0648" d="M511.602 277.757C535.518 277.092 555.425 295.979 556.019 319.897C556.613 343.814 537.668 363.666 513.749 364.19C489.929 364.712 470.177 345.862 469.586 322.043C468.994 298.225 487.786 278.418 511.602 277.757Z"/><path fill="#1D0648" d="M507.074 662.206C530.659 659.091 552.324 675.629 555.539 699.2C558.754 722.771 542.308 744.507 518.75 747.821C495.052 751.155 473.158 734.589 469.924 710.877C466.69 687.164 483.348 665.34 507.074 662.206Z"/><path fill="#1D0648" d="M342.826 390.183C366.137 388.514 386.38 406.076 388.017 429.39C389.655 452.703 372.066 472.922 348.75 474.529C325.479 476.132 305.306 458.584 303.671 435.314C302.037 412.045 319.559 391.848 342.826 390.183Z"/><path fill="#1D0648" d="M341.382 550.216C364.609 547.744 385.436 564.581 387.885 587.81C390.335 611.039 373.477 631.85 350.246 634.276C327.047 636.699 306.271 619.87 303.825 596.673C301.379 573.477 318.188 552.684 341.382 550.216Z"/><path fill="#1D0648" d="M675.2 550.189C698.39 547.932 719.028 564.877 721.328 588.063C723.627 611.248 706.72 631.918 683.539 634.26C660.297 636.609 639.562 619.647 637.256 596.401C634.951 573.155 651.95 552.451 675.2 550.189Z"/><path fill="#1D0648" d="M676.558 390.212C699.8 388.679 719.893 406.258 721.463 429.498C723.032 452.738 705.486 472.859 682.249 474.466C658.958 476.077 638.781 458.481 637.208 435.189C635.635 411.896 653.263 391.747 676.558 390.212Z"/></svg>